# xmcd
#
# Track frame offsets:
#	150
#	15077
#	31716
#	41734
#	59595
#	71541
#	84113
#	96666
#	113385
#	130053
#	149011
#	166288
#	184953
#	199766
#	213487
#	224527
#
# Disc length: 3140 seconds
#
# Revision: 1
# Processed by: cddbd v1.5.2PL0 Copyright (c) Steve Scherf et al.
# Submitted via: audiograbber 1.83.01
#
DISCID=e30c4210
DTITLE=Varius - Country Party CD1
DYEAR=2006
DGENRE=
TTITLE0=Tamra Rosanes - Country Party
TTITLE1=Maarten - Memories Are Made Of This
TTITLE2=Wenche - You Ain't Woman Enoug To Take My Man
TTITLE3=Kim Schwarts - I've Got Your Number
TTITLE4=April - Teach Your Children
TTITLE5=Christer Sjøgren and The Jordanaires - Good Luck Charm
TTITLE6=Kirsten Siggaard - Seven Lonely Days
TTITLE7=Smokie - Rose-A - Lee
TTITLE8=Country Lise - In Deep Deep Trouble
TTITLE9=Dr. Hook featuring Ray Sawyer - Missing You Takes Up Most Of My Time
TTITLE10=Kandis with Heidi Hauge - Blanket On The Ground
TTITLE11=Jonny Logan and The Jordanaires - Miss You Nights
TTITLE12=McKinleys - Dirty Tricks
TTITLE13=Mean Abilene - My Favourite Cowboy
TTITLE14=Maarten - Just Walking In The Rain
TTITLE15=Charlie McCoy - Orange Blossom Special (instrumental)
EXTD=
EXTT0=
EXTT1=
EXTT2=
EXTT3=
EXTT4=
EXTT5=
EXTT6=
EXTT7=
EXTT8=
EXTT9=
EXTT10=
EXTT11=
EXTT12=
EXTT13=
EXTT14=
EXTT15=
PLAYORDER=
